# xmcd
#
# Track frame offsets:
#	150
#	13584
#	27905
#	38428
#	49154
#	61319
#	72933
#	85512
#	98740
#	117189
#	130305
#	141603
#	156760
#	173915
#	187506
#	198942
#	212653
#
# Disc length: 3025
#
# Revision: 2
# Processed by: cddbd v1.5.1PL0 Copyright (c) Steve Scherf et al.
# Submitted via: audiograbber 1.83.01
# Normalized: r1:TDELIM( - )
#
DISCID=dd0bcf11
DTITLE=Patsy Cline and Friends - LG145
DYEAR=1900
DGENRE=Karaoke Country Female
TTITLE0=Patsy Cline - Crazy
TTITLE1=Patsy Cline - I Fall To Pieces
TTITLE2=Patsy Cline - Walkin After Midnight
TTITLE3=Patsy Cline - Blue Moon Of Kentucky
TTITLE4=Patsy Cline - Leavin' On Your Mind
TTITLE5=Patsy Cline - Three Cigarettes And An Ashtray
TTITLE6=Patsy Cline - Stranger In My Arms
TTITLE7=Patsy Cline - Sweet Dreams
TTITLE8=Patsy Cline - Faded Love
TTITLE9=Patsy Cline - San Antonio Rose
TTITLE10=Patsy Cline - Seven Lonely Days
TTITLE11=Loretta Lynn - Coal Miner's Daughter
TTITLE12=Barbara Mandrell - I Was Country When Country Wasn't Cool
TTITLE13=Dolly Parton - Here You Come Again
TTITLE14=Crystal Gayle - Don't It Make My Brown Eyes Blue
TTITLE15=Tammy Wynette - Stand By Your Man
TTITLE16=Lynn Anderson - Rose Garden
EXTD=
EXTT0=
EXTT1=
EXTT2=
EXTT3=
EXTT4=
EXTT5=
EXTT6=
EXTT7=
EXTT8=
EXTT9=
EXTT10=
EXTT11=
EXTT12=
EXTT13=
EXTT14=
EXTT15=
EXTT16=
PLAYORDER=
